<svg xmlns="http://www.w3.org/2000/svg" height="821.96" viewBox="0, 0, 821.959, 821.96" width="821.959"><path d="M410.98 0c226.977 0 410.979 184.001 410.979 410.98 0 226.977-184.002 410.98-410.979 410.98C184.001 821.96 0 637.957 0 410.98 0 184.001 184.001 0 410.98 0zm0 23.833c-213.816 0-387.147 173.331-387.147 387.147 0 213.815 173.331 387.147 387.147 387.147 213.814 0 387.146-173.332 387.146-387.147 0-213.816-173.332-387.147-387.146-387.147zm0 19.166c203.23 0 367.981 164.75 367.981 367.981S614.21 778.961 410.98 778.961c-203.232 0-367.982-164.75-367.982-367.981S207.748 42.999 410.98 42.999zm1.69 646.304c-11.322.002-19.483 8.446-19.641 18.856-.201 12.543 9.717 19.446 19.32 19.615 9.027.148 16.195-4.166 16.305-10.793l.159-9.802-16.514-.269-.082 5.312 11.325.187-.075 4.127c-.038 3.149-4.549 6.03-10.79 5.927-9.12-.161-14.589-6.738-14.472-13.972.121-7.719 5.743-14.024 15.298-13.862 6.531.113 9.258 3.548 10.999 5.34l3.666-3.719c-2.076-2.108-6.52-6.806-15.112-6.943-.129-.002-.257-.004-.386-.004zm55.736-4.712l-29.183 4.288 5.114 36.529 30.082-4.422-.727-5.261-24.957 3.678-1.561-11.158 12.122-1.776-.733-5.278-12.129 1.791-1.344-9.597 24.058-3.531-.742-5.263zm36.983-9.978c-1.408 0-2.858.241-4.267.676l-20.311 6.263 10.372 35.333 4.97-1.449-4.34-14.825 12.82-3.959 11.195 12.575 5.433-2.002-11.253-12.427c2.829-1.132 7.134-5.084 4.883-12.759-1.581-5.366-5.383-7.426-9.502-7.426zm.484 5.332c2.517.793 3.187 1.032 4.053 3.625 1 3.443-.525 6.071-4.251 7.218l-15.353 4.742-3.062-10.416 15.352-4.738c1.791-.459.714-.253 3.261-.431zm-201.477-10.854l-1.703 5.02 11.923 4.26-10.235 30.111 4.893 1.755 10.242-30.127 11.926 4.258 1.709-5.017-28.755-10.26zm48.139 31.167l-1.177 5.312 12.834 2.892 1.157-5.247-12.814-2.957zm202.288-49.926l-4.618 2.416-.779 26.158-21.121-14.709-4.643 2.415 15.756 33.203 4.705-2.16-10.905-23.597.087-.049 20.923 14.534.8-25.884.096-.047 12.249 22.942 4.499-2.59-17.049-32.632zm-288.527-.748l-16.817 32.841 4.455 2.652 12.936-25.183.08.041 6.289 35.42 4.553 2.123 16.727-32.713-4.588-2.473-12.72 24.831-.086-.042-6.24-35.023-4.589-2.474zm312.719-16.023l-4.688 3.409 7.6 39.701 4.619-3.023-2.534-13.362 13.109-9.558 11.145 6.991 4.514-3.69-33.765-20.468zm1.307 7.132l11.881 7.101-9.238 6.734-2.643-13.835zm-329.583-1.857l-20.17 31.356 4.331 2.918 20.177-31.36-4.338-2.914zm-24.529-19.517l-35.972 17.407 4.125 3.882 12.185-5.941 12.255 10.676-3.909 13.172 4.616 3.565 11.083-38.944-4.383-3.817zm-2.046 6.865l-3.8 13.546-8.63-7.506 12.43-6.04zm377.383-10.986l-3.795 3.616 24.51 27.018 3.874-3.528-24.589-27.106zM410.98 181.187c-126.912 0-229.794 102.882-229.794 229.793 0 126.912 102.882 229.793 229.794 229.793 126.91 0 229.793-102.881 229.793-229.793 0-126.911-102.883-229.793-229.793-229.793zm1.291 297.111c37.166 0 87.416 29.667 87.416 83.417-.373 16.688-6.391 32.906-14.97 47.094-23.522 9.09-48.609 12.98-73.737 13.298-25.209.132-50.134-4.657-73.758-13.305-8.54-14.404-14.373-30.251-14.95-47.087 0-53.75 50.25-83.417 87.416-83.417h2.583zm29.825-276.103c104.048 15.24 178.694 104.618 180.011 208.785.267 33.232-8.097 64.983-22.445 94.763-92.943-72.06-155.772-184.813-157.566-303.548zm-62.233 0c-1.623 119.109-64.905 231.03-157.566 303.548-15.03-29.376-22.029-61.896-22.445-94.763.322-104.514 76.784-193.017 180.011-208.785zM633.681 580.4l-3.467 3.958 20.35 18.753-.065.068-34.671-2.441-3.472 3.952 26.857 24.771 3.639-3.804-20.603-18.992.065-.079 35.035 2.456 3.101-3.957-26.769-24.685zm-450.281.046c-1.882 0-3.568.561-5.01 1.661-1.695 1.288-2.71 3.014-3.004 5.118-.468 3.3.83 7.454 3.487 11.095l3.839 5.256c2.972 4.064 5.837 8.325 5.241 11.679-.233 1.354-.981 2.443-2.212 3.258-.677.444-1.456.669-2.322.669-5.208 0-14.027-9.515-18.363-23.149l-.08-.25-3.791 3.647-.072.074.023.088c.848 3.411 3.11 8.918 6.922 14.146 4.002 5.483 8.568 9.275 12.849 10.687 1.383.455 2.736.69 4.032.69 1.875 0 3.537-.495 4.803-1.447 2.088-1.56 3.321-3.549 3.66-5.901.644-4.354-1.619-10.103-6.705-17.066l-3.386-4.647c-2.707-3.707-2.591-6.123-2.014-7.49.504-1.2 1.586-2.03 2.814-2.183.189-.016.385-.022.586-.022 6.178 0 14.934 10.504 17.209 18.652l.058.208.175-.112c1.287-.756 2.778-1.632 3.693-2.163l.112-.07-.035-.116c-2.939-11.264-14.091-22.312-22.509-22.312zm32.441-455.164c-9.547 0-19.152 3.867-25.878 11.245l-40.548 44.626 70.641 64.375c4.422-4.854 9.076-9.493 13.852-13.993l-22.051-20.101 27.317-30.065c12.361-13.566 12.374-35.373-1.192-47.737-6.187-5.636-14.143-8.35-22.141-8.35zm-1.259 18.608c4.228.616 6.711 1.23 10.026 4.168 6.553 5.962 7.023 16.153 1.048 22.693l-26.505 29.102-23.754-21.649 26.513-29.092c3.486-3.454 7.701-5.38 12.672-5.222zm387.249-13.496c-6.25 0-11.977 1.915-16.6 6.278-12.713 11.993-5.501 30.475 5.593 42.141l10.756 11.328c10.979 11.563 20.581 23.069 11.758 30.356-9.413 7.772-35.695-11.703-51.492-45.141l-14.159 10.683c3.384 8.798 11.005 21.538 21.253 32.315 11.61 12.229 24.255 20.181 35.583 22.413 8.899 1.747 17.77.426 23.613-5.004 14.588-13.539 9.288-33.27-13.639-57.406l-9.514-10.012c-10.55-11.122-6.239-17.451-2.151-18.42 14.575-3.412 41.357 23.182 46.474 41.203 4.267-3.239 13.738-10.199 13.738-10.199-8.876-25.253-38.51-50.535-61.213-50.535zM303.718 81.773a350.72 350.72 0 0 0-20.476 7.269l-7.268 110.341a256.388 256.388 0 0 1 20.16-11.127l1.038-25.719a277.826 277.826 0 0 1 41.49-14.485l16.948 19.447c7.5-1.621 15.07-2.904 22.686-3.843l-74.578-81.883zm-4.162 21.437l27.402 31.424a290.956 290.956 0 0 0-29.071 10.19l1.669-41.614zm236.821-15.431l-37.356 89.875a257.223 257.223 0 0 1 18.623 7.757l37.401-89.948a355.183 355.183 0 0 0-18.668-7.684zm-90.305-22.161H390.22v96.84c6.485-.493 13.035-.818 19.657-.818h.011v-29.443h24.658l21.264 33.625a254.746 254.746 0 0 1 24.819 5.776l-25.49-40.64c14.615-3.9 26.66-16.776 26.66-32.05 0-18.354-17.365-33.29-35.727-33.29zm0 17.223c8.865 0 16.069 7.21 16.069 16.067 0 8.864-7.204 16.067-16.069 16.067h-36.184V82.841h36.184z" fill="#3C5C85"/><path d="M489.077 414.117H332.882c-37.575 64.26-82.566 101.191-98.297 112.894a212.23 212.23 0 0 0 63.863 62.624c-12.915-61.435 40.838-122.269 107.698-122.269h9.666c66.862 0 120.616 60.835 107.699 122.27a212.237 212.237 0 0 0 63.864-62.625c-15.732-11.704-60.723-48.634-98.298-112.894m-57.24-213.239a213.62 213.62 0 0 0-20.857-1.026c-7.039 0-13.996.353-20.858 1.026-.785 86.324-24.456 154.831-53.429 206.572h148.572c-28.972-51.74-52.643-120.248-53.428-206.572" fill="#D3494D"/><path d="M411.292 574.783c1.854 0 1.813-3.375 1.813-3.375 0-4.771 5.75-13.75 5.75-13.75 5.666-8.5 6.916-14.563 6.916-18.042 0-8.082-10.144-30.146-11.541-33.062-1.397-2.916-2.938-2.729-2.938-2.729h-.625s-1.541-.187-2.938 2.729c-1.396 2.916-11.541 24.98-11.541 33.062 0 3.479 1.25 9.542 6.916 18.042 0 0 5.75 8.979 5.75 13.75 0 0-.042 3.375 1.813 3.375zm-50.001-10.708c0-6.104 5.063-16.229 16.438-16.542 13.437-.312 24.5 19.625 24.5 19.625s3.75 6.125 1.875 7.188c-1.875 1.062-5.563-3.625-5.563-3.625s-9.187-11.855-14.853-11.855c-5.668 0-6.418 5.417-6.418 5.417s-.416 3.584 3.75 4.417c4.168.833 3.168 3.5 3.168 3.5s-1.418 6.083-9.168 6.083c-7.75 0-13.729-8.625-13.729-14.208m99.377 0c0-6.104-5.064-16.229-16.439-16.542-13.436-.312-24.5 19.625-24.5 19.625s-3.75 6.125-1.875 7.188c1.875 1.062 5.564-3.625 5.564-3.625s9.186-11.855 14.853-11.855 6.417 5.417 6.417 5.417.416 3.584-3.75 4.417c-4.167.833-3.167 3.5-3.167 3.5s1.417 6.083 9.167 6.083 13.73-8.625 13.73-14.208m-43.36 25.199l-.016-.031c-.132-2.118-3.629-8.195-5.618-9.687-.242-.211-.461-.335-.644-.335-.016 0-.035.012-.051.013-.017-.001-.036-.013-.052-.013-.183 0-.402.124-.644.335-1.989 1.492-5.485 7.569-5.619 9.687l-.014.031.01.016c-.002.026-.01.06-.01.085 0 2.278 4.757 8.409 6.278 8.409.015 0 .035-.014.051-.015.016.001.035.015.05.015 1.521 0 6.279-6.131 6.279-8.409 0-.025-.008-.059-.01-.085l.01-.016" fill="#BCA361"/></svg>